<svg width="16" height="16" viewBox="0 0 16 16" fill="none" xmlns="http://www.w3.org/2000/svg">
<g transform="scale(0.5333)">
<path d="M9.62835 1.24432C9.87388 0.5 10.5547 0 11.3248 0H17.6808C18.4509 0 19.1317 0.5 19.3772 1.24432L19.8571 2.72727H25.2143C26.202 2.72727 27 3.53977 27 4.54545C27 5.55114 26.202 6.36364 25.2143 6.36364H3.78571C2.79799 6.36364 2 5.55114 2 4.54545C2 3.53977 2.79799 2.72727 3.78571 2.72727H9.14286L9.62835 1.24432ZM3.78571 9.09091H25.2143V26.3636C25.2143 28.3693 23.6127 30 21.6429 30H7.35714C5.38728 30 3.78571 28.3693 3.78571 26.3636V9.09091ZM8.69643 12.7273C7.95424 12.7273 7.35714 13.3352 7.35714 14.0909V25C7.35714 25.7557 7.95424 26.3636 8.69643 26.3636C9.43862 26.3636 10.0357 25.7557 10.0357 25V14.0909C10.0357 13.3352 9.43862 12.7273 8.69643 12.7273ZM14.5 12.7273C13.7578 12.7273 13.1607 13.3352 13.1607 14.0909V25C13.1607 25.7557 13.7578 26.3636 14.5 26.3636C15.2422 26.3636 15.8393 25.7557 15.8393 25V14.0909C15.8393 13.3352 15.2422 12.7273 14.5 12.7273ZM20.3036 12.7273C19.5614 12.7273 18.9643 13.3352 18.9643 14.0909V25C18.9643 25.7557 19.5614 26.3636 20.3036 26.3636C21.0458 26.3636 21.6429 25.7557 21.6429 25V14.0909C21.6429 13.3352 21.0458 12.7273 20.3036 12.7273Z" fill="white"/>
</g>
</svg>
