<svg width="30" height="30" viewBox="0 0 30 30" fill="none" xmlns="http://www.w3.org/2000/svg">
<g clip-path="url(#clip0_2_2)">
<path d="M12.5766 -1.07227C12.3302 -1.60547 11.7802 -1.92187 11.2073 -1.86914C10.6344 -1.81641 10.1531 -1.40039 10.0042 -0.826172L5.87917 15.1113C5.73021 15.6797 5.94792 16.2832 6.41771 16.623C6.8875 16.9629 7.51771 16.9629 7.9875 16.6289C13.3557 12.8496 18.4547 12.4922 21.3594 12.7031C22.0411 12.75 22.6141 13.2598 22.7573 14.0801C22.7802 14.2148 22.7917 14.3496 22.7917 14.4902C22.7917 15.8086 21.7432 16.8809 20.5 16.8809H14.5417C13.7797 16.8809 13.1667 17.5078 13.1667 18.2871C13.1667 19.0664 13.7797 19.6934 14.5417 19.6934H20.5C23.3073 19.6934 25.5417 17.3086 25.5417 14.4902C25.5417 12.0996 23.9833 10.1426 22.1214 9.18164C19.5031 7.82812 15.338 4.875 12.5766 -1.06641V-1.07227ZM11.7917 3.24609C13.7453 6.31641 16.0141 8.46094 18.0479 9.93164C15.5729 10.1602 12.5766 10.8457 9.39687 12.498L11.7917 3.24609ZM21.4167 25.3125V27.1875H8.58333V25.3125H21.4167ZM5.83333 25.3125V27.1875H5.375C4.61302 27.1875 4 27.8145 4 28.5937C4 29.373 4.61302 30 5.375 30H24.625C25.387 30 26 29.373 26 28.5937C26 27.8145 25.387 27.1875 24.625 27.1875H24.1667V25.3125C24.1667 23.7598 22.9349 22.5 21.4167 22.5H8.58333C7.0651 22.5 5.83333 23.7598 5.83333 25.3125Z" fill="white"/>
</g>
<defs>
<clipPath id="clip0_2_2">
<rect width="30" height="30" fill="white"/>
</clipPath>
</defs>
</svg>
