<svg width="30" height="30" viewBox="0 0 30 30" fill="none" xmlns="http://www.w3.org/2000/svg">
<path d="M21.5 21.0409C23.7692 19.152 25.2143 16.2982 25.2143 13.0994C25.2143 7.41521 20.6411 2.80702 15 2.80702C9.35893 2.80702 4.78571 7.41521 4.78571 13.0994C4.78571 16.2982 6.2308 19.152 8.5 21.0409C8.52321 22.0702 8.68571 23.4035 8.87143 24.655C4.78571 22.4503 2 18.0994 2 13.0994C2 5.8655 7.82098 0 15 0C22.179 0 28 5.8655 28 13.0994C28 18.1053 25.2143 22.4503 21.1228 24.655C21.3143 23.4035 21.471 22.0702 21.4942 21.0409H21.5ZM20.6875 17.9181C20.2058 17.1813 19.5732 16.655 18.9232 16.2924C18.8013 16.2281 18.6795 16.1637 18.5576 16.1053C19.2366 15.2924 19.6487 14.2398 19.6487 13.0936C19.6487 10.5088 17.571 8.4152 15.0058 8.4152C12.4406 8.4152 10.3629 10.5088 10.3629 13.0936C10.3629 14.2398 10.775 15.2924 11.454 16.1053C11.3321 16.1637 11.2103 16.2222 11.0884 16.2924C10.4384 16.655 9.8058 17.1813 9.32411 17.9181C8.23304 16.614 7.57723 14.9357 7.57723 13.0994C7.57723 8.96491 10.9027 5.61404 15.0058 5.61404C19.1089 5.61404 22.4344 8.96491 22.4344 13.0994C22.4344 14.9357 21.7786 16.6199 20.6875 17.9181ZM15 18.2456C16.9094 18.2456 18.7143 18.7485 18.7143 20.807C18.7143 22.7368 17.9656 26.8947 17.5187 28.5789C17.2228 29.6901 16.0969 29.9474 15 29.9474C13.9031 29.9474 12.783 29.6901 12.4812 28.5789C12.0286 26.9123 11.2857 22.7485 11.2857 20.8129C11.2857 18.7602 13.0906 18.2515 15 18.2515V18.2456ZM15 10.7602C16.2826 10.7602 17.3214 11.807 17.3214 13.0994C17.3214 14.3918 16.2826 15.4386 15 15.4386C13.7174 15.4386 12.6786 14.3918 12.6786 13.0994C12.6786 11.807 13.7174 10.7602 15 10.7602Z" fill="white"/>
</svg>
