<svg width="30" height="30" viewBox="0 0 30 30" fill="none" xmlns="http://www.w3.org/2000/svg">
<g clip-path="url(#clip0_2_6)">
<path d="M24.375 12.1637C24.375 14.848 23.502 17.3275 22.0312 19.3392L29.4492 26.7485C30.1816 27.4795 30.1816 28.6667 29.4492 29.3977C28.7168 30.1287 27.5273 30.1287 26.7949 29.3977L19.377 21.9883C17.3613 23.4561 14.877 24.3275 12.1875 24.3275C5.45508 24.3275 0 18.883 0 12.1637C0 5.44444 5.45508 0 12.1875 0C18.9199 0 24.375 5.44444 24.375 12.1637ZM12.1875 20.5848C16.8457 20.5848 20.625 16.8129 20.625 12.1637C20.625 7.51462 16.8457 3.74269 12.1875 3.74269C7.5293 3.74269 3.75 7.51462 3.75 12.1637C3.75 16.8129 7.5293 20.5848 12.1875 20.5848Z" fill="#555555"/>
</g>
<defs>
<clipPath id="clip0_2_6">
<rect width="30" height="30" fill="white"/>
</clipPath>
</defs>
</svg>
